<svg width="33" height="33" viewBox="0 0 33 33" fill="none" xmlns="http://www.w3.org/2000/svg">
<path d="M17.7936 3.28564C19.2936 3.28964 20.055 3.29764 20.7123 3.31631L20.971 3.32564C21.2696 3.33631 21.5643 3.34964 21.9203 3.36564C23.339 3.43231 24.307 3.65631 25.1563 3.98564C26.0363 4.32431 26.7776 4.78298 27.519 5.52298C28.197 6.18951 28.7216 6.99576 29.0563 7.88564C29.3856 8.73498 29.6096 9.70298 29.6763 11.123C29.6923 11.4776 29.7056 11.7723 29.7163 12.0723L29.7243 12.331C29.7443 12.987 29.7523 13.7483 29.755 15.2483L29.7563 16.243V17.9896C29.7596 18.9622 29.7494 19.9347 29.7256 20.907L29.7176 21.1656C29.707 21.4656 29.6936 21.7603 29.6776 22.115C29.611 23.535 29.3843 24.5016 29.0563 25.3523C28.7225 26.2427 28.1978 27.0491 27.519 27.715C26.8523 28.3927 26.0461 28.9173 25.1563 29.2523C24.307 29.5816 23.339 29.8056 21.9203 29.8723C21.6039 29.8872 21.2875 29.9005 20.971 29.9123L20.7123 29.9203C20.055 29.939 19.2936 29.9483 17.7936 29.951L16.799 29.9523H15.0536C14.0807 29.9557 13.1077 29.9454 12.135 29.9216L11.8763 29.9136C11.5598 29.9017 11.2433 29.8879 10.927 29.8723C9.5083 29.8056 8.5403 29.5816 7.68964 29.2523C6.79986 28.9181 5.99393 28.3934 5.3283 27.715C4.6497 27.0487 4.1246 26.2424 3.78964 25.3523C3.4603 24.503 3.2363 23.535 3.16964 22.115C3.15478 21.7986 3.14145 21.4821 3.12964 21.1656L3.12297 20.907C3.0984 19.9347 3.08729 18.9622 3.08964 17.9896V15.2483C3.08592 14.2758 3.09569 13.3032 3.11897 12.331L3.1283 12.0723C3.13897 11.7723 3.1523 11.4776 3.1683 11.123C3.23497 9.70298 3.45897 8.73631 3.7883 7.88564C4.12312 6.99485 4.64926 6.18834 5.32964 5.52298C5.99509 4.84494 6.8005 4.32029 7.68964 3.98564C8.5403 3.65631 9.50697 3.43231 10.927 3.36564C11.2816 3.34964 11.5776 3.33631 11.8763 3.32564L12.135 3.31764C13.1072 3.29395 14.0798 3.28373 15.0523 3.28698L17.7936 3.28564ZM16.423 9.95231C14.6549 9.95231 12.9592 10.6547 11.7089 11.9049C10.4587 13.1552 9.7563 14.8509 9.7563 16.619C9.7563 18.3871 10.4587 20.0828 11.7089 21.333C12.9592 22.5833 14.6549 23.2856 16.423 23.2856C18.1911 23.2856 19.8868 22.5833 21.137 21.333C22.3873 20.0828 23.0896 18.3871 23.0896 16.619C23.0896 14.8509 22.3873 13.1552 21.137 11.9049C19.8868 10.6547 18.1911 9.95231 16.423 9.95231ZM16.423 12.619C16.9483 12.6189 17.4684 12.7223 17.9538 12.9232C18.4391 13.1241 18.8801 13.4187 19.2516 13.7901C19.6231 14.1615 19.9178 14.6024 20.1189 15.0876C20.32 15.5729 20.4236 16.093 20.4236 16.6183C20.4237 17.1436 20.3204 17.6638 20.1194 18.1491C19.9185 18.6344 19.6239 19.0754 19.2525 19.4469C18.8812 19.8184 18.4403 20.1131 17.955 20.3142C17.4697 20.5153 16.9496 20.6189 16.4243 20.619C15.3634 20.619 14.346 20.1975 13.5959 19.4474C12.8457 18.6973 12.4243 17.6798 12.4243 16.619C12.4243 15.5581 12.8457 14.5407 13.5959 13.7905C14.346 13.0404 15.3634 12.619 16.4243 12.619M23.4243 7.95231C22.9823 7.95231 22.5584 8.12791 22.2458 8.44047C21.9332 8.75303 21.7576 9.17695 21.7576 9.61898C21.7576 10.061 21.9332 10.4849 22.2458 10.7975C22.5584 11.11 22.9823 11.2856 23.4243 11.2856C23.8663 11.2856 24.2903 11.11 24.6028 10.7975C24.9154 10.4849 25.091 10.061 25.091 9.61898C25.091 9.17695 24.9154 8.75303 24.6028 8.44047C24.2903 8.12791 23.8663 7.95231 23.4243 7.95231Z" fill="#E9F5FE"/>
</svg>
