<svg width="30" height="30" viewBox="0 0 30 30" fill="none" xmlns="http://www.w3.org/2000/svg">
<path fill-rule="evenodd" clip-rule="evenodd" d="M5.625 1.875C4.63044 1.875 3.67661 2.27009 2.97335 2.97335C2.27009 3.67661 1.875 4.63044 1.875 5.625V24.375C1.875 25.3696 2.27009 26.3234 2.97335 27.0266C3.67661 27.7299 4.63044 28.125 5.625 28.125H24.375C25.3696 28.125 26.3234 27.7299 27.0266 27.0266C27.7299 26.3234 28.125 25.3696 28.125 24.375V5.625C28.125 4.63044 27.7299 3.67661 27.0266 2.97335C26.3234 2.27009 25.3696 1.875 24.375 1.875H5.625ZM7.69125 9.93188C8.2855 9.93188 8.85541 9.69581 9.27561 9.27561C9.69581 8.85541 9.93188 8.2855 9.93188 7.69125C9.93188 7.097 9.69581 6.52709 9.27561 6.10689C8.85541 5.68669 8.2855 5.45063 7.69125 5.45063C7.097 5.45063 6.52709 5.68669 6.10689 6.10689C5.68669 6.52709 5.45063 7.097 5.45063 7.69125C5.45063 8.2855 5.68669 8.85541 6.10689 9.27561C6.52709 9.69581 7.097 9.93188 7.69125 9.93188ZM9.56625 24.0244V11.6888H5.81625V24.0244H9.56625ZM12.0562 11.6888H15.8063V13.3406C16.3594 12.4744 17.5744 11.3081 19.8337 11.3081C22.53 11.3081 23.9944 13.095 23.9944 16.4944C23.9944 16.6575 24.0094 17.4019 24.0094 17.4019V24.0225H20.2594V17.4037C20.2594 16.4944 20.0681 14.7075 18.0469 14.7075C16.0238 14.7075 15.8531 16.9538 15.8063 18.4237V24.0225H12.0562V11.6888Z" fill="#F8F7F4"/>
</svg>
