<svg width="33" height="33" viewBox="0 0 33 33" fill="none" xmlns="http://www.w3.org/2000/svg">
<path d="M9.25147 15.0056C11.1715 18.7789 14.2648 21.8589 18.0381 23.7922L20.9715 20.8589C21.3315 20.4989 21.8648 20.3789 22.3315 20.5389C23.8248 21.0322 25.4381 21.2989 27.0915 21.2989C27.8248 21.2989 28.4248 21.8989 28.4248 22.6322V27.2856C28.4248 28.0189 27.8248 28.6189 27.0915 28.6189C14.5715 28.6189 4.4248 18.4722 4.4248 5.95223C4.4248 5.2189 5.0248 4.6189 5.75814 4.6189H10.4248C11.1581 4.6189 11.7581 5.2189 11.7581 5.95223C11.7581 7.6189 12.0248 9.2189 12.5181 10.7122C12.6648 11.1789 12.5581 11.6989 12.1848 12.0722L9.25147 15.0056Z" fill="#E5E5E5"/>
</svg>
