<?xml version="1.0" encoding="UTF-8"?>
<svg version="1.1" xmlns="http://www.w3.org/2000/svg" width="540" height="360">
<path d="M0 0 C178.2 0 356.4 0 540 0 C540 118.8 540 237.6 540 360 C361.8 360 183.6 360 0 360 C0 241.2 0 122.4 0 0 Z " fill="#07080A" transform="translate(0,0)"/>
<path d="M0 0 C0.88365234 0.00451172 1.76730469 0.00902344 2.67773438 0.01367188 C4.84768559 0.02540134 7.01760172 0.04333505 9.1875 0.0625 C9.2805421 11.83322262 9.35143782 23.60385647 9.39474869 35.37487316 C9.41554501 40.84176391 9.44371613 46.30840143 9.48925781 51.77514648 C9.53300074 57.05957307 9.5566968 62.34375742 9.56700897 67.62835121 C9.57434958 69.635601 9.58868284 71.64283886 9.61042023 73.64998436 C9.81249372 93.09769896 6.56872209 109.12574935 -7.33984375 123.77734375 C-19.73473768 135.23234051 -34.27063317 139.0625 -50.8125 139.0625 C-50.4825 123.8825 -50.1525 108.7025 -49.8125 93.0625 C-43.5425 92.7325 -37.2725 92.4025 -30.8125 92.0625 C-24.5234149 89.15928203 -24.5234149 89.15928203 -20.8125 84.0625 C-20.4825 80.4325 -20.1525 76.8025 -19.8125 73.0625 C-31.6925 73.0625 -43.5725 73.0625 -55.8125 73.0625 C-56.39107426 51.77096731 -56.10506618 35.06746346 -41.45703125 18.37890625 C-29.59549101 6.00244643 -17.12499009 -0.16601407 0 0 Z " fill="#FCFDFD" transform="translate(329.8125,89.9375)"/>
<path d="M0 0 C-0.23009766 1.5778125 -0.23009766 1.5778125 -0.46484375 3.1875 C-1.20447535 9.10455276 -1.35445088 15.04502033 -1.5625 21 C-1.62727539 22.73443359 -1.62727539 22.73443359 -1.69335938 24.50390625 C-1.79867917 27.33583854 -1.90081087 30.16784747 -2 33 C-2.81678223 33.00410889 -3.63356445 33.00821777 -4.47509766 33.01245117 C-8.19245675 33.04543924 -11.90818858 33.11609328 -15.625 33.1875 C-17.55279297 33.19620117 -17.55279297 33.19620117 -19.51953125 33.20507812 C-27.12453134 33.14533709 -27.12453134 33.14533709 -33.7734375 36.30078125 C-38.25967828 41.73936437 -38.1645165 44.4806485 -39 52 C-28.77 52 -18.54 52 -8 52 C-7.90754418 58.17142579 -7.82809653 64.34039311 -7.78027344 70.51196289 C-7.76031224 72.60579629 -7.73313341 74.69957506 -7.69824219 76.79321289 C-7.38023684 96.38327785 -9.55523001 111.82973288 -23.4921875 126.640625 C-33.55753705 136.11020619 -45.25190682 140.33539712 -58.9296875 140.09765625 C-59.70948975 140.09060669 -60.48929199 140.08355713 -61.29272461 140.07629395 C-63.19523244 140.05807069 -65.09764228 140.0300541 -67 140 C-67.1163439 127.98581689 -67.20494257 115.97176993 -67.25906086 103.95713615 C-67.28504763 98.376982 -67.32024454 92.797216 -67.37719727 87.21728516 C-67.43190847 81.82261517 -67.46150245 76.42831627 -67.47438622 71.03339005 C-67.48355634 68.98507987 -67.5014617 66.93678779 -67.52865028 64.88863754 C-67.77849032 45.27046973 -64.15962265 31.38491905 -50.6875 16.43359375 C-36.2974704 2.44591696 -19.25464185 -0.57192005 0 0 Z " fill="#FCFCFC" transform="translate(268,130)"/>
<path d="M0 0 C-0.495 0.639375 -0.99 1.27875 -1.5 1.9375 C-3.09802862 3.70974339 -3.09802862 3.70974339 -3 5 C-9.625 4.25 -9.625 4.25 -13 2 C-11.5882217 1.46605821 -10.17029756 0.94834896 -8.75 0.4375 C-7.96109375 0.14746094 -7.1721875 -0.14257812 -6.359375 -0.44140625 C-3.80896548 -1.04522837 -2.44677771 -0.8473932 0 0 Z " fill="#18191A" transform="translate(309,225)"/>
<path d="M0 0 C0.66 1.32 1.32 2.64 2 4 C1.34 4.66 0.68 5.32 0 6 C0 7.32 0 8.64 0 10 C-0.99 9.67 -1.98 9.34 -3 9 C-5.6569191 9.87914688 -5.6569191 9.87914688 -8 11 C-7.59007812 10.45730469 -7.18015625 9.91460937 -6.7578125 9.35546875 C-6.21898437 8.64003906 -5.68015625 7.92460937 -5.125 7.1875 C-4.59132812 6.47980469 -4.05765625 5.77210938 -3.5078125 5.04296875 C-2.29185219 3.39543703 -1.13583859 1.70375789 0 0 Z " fill="#121214" transform="translate(252,246)"/>
<path d="M0 0 C0.66 0.66 1.32 1.32 2 2 C0.50902342 5.7952131 -1.75700849 7.61042731 -5 10 C-4.79375 9.071875 -4.5875 8.14375 -4.375 7.1875 C-3.63307034 3.84826598 -3.63307034 3.84826598 -6 1 C-4.7934375 1.0309375 -4.7934375 1.0309375 -3.5625 1.0625 C-1.06645115 1.29633621 -1.06645115 1.29633621 0 0 Z " fill="#18181A" transform="translate(294,98)"/>
<path d="M0 0 C-0.99 0.495 -0.99 0.495 -2 1 C-2.33 1.99 -2.66 2.98 -3 4 C-4.9375 4.75 -4.9375 4.75 -7 5 C-7.66 4.67 -8.32 4.34 -9 4 C-8.67 3.01 -8.34 2.02 -8 1 C-5.29120665 -0.35439668 -2.99066732 -0.06501451 0 0 Z " fill="#0F1012" transform="translate(313,90)"/>
<path d="M0 0 C0.12375 0.639375 0.2475 1.27875 0.375 1.9375 C0.684375 2.9584375 0.684375 2.9584375 1 4 C1.66 4.33 2.32 4.66 3 5 C2.319375 5.8353125 2.319375 5.8353125 1.625 6.6875 C-0.1037341 8.9560165 -0.1037341 8.9560165 -1.0625 11.6875 C-2 14 -2 14 -4 15 C-3.69255859 14.00419922 -3.69255859 14.00419922 -3.37890625 12.98828125 C-3.10949219 12.10527344 -2.84007812 11.22226563 -2.5625 10.3125 C-2.29566406 9.44238281 -2.02882813 8.57226562 -1.75390625 7.67578125 C-1.03655471 5.12974079 -0.482459 2.5996577 0 0 Z " fill="#262727" transform="translate(259,227)"/>
<path d="M0 0 C2.625 0.375 2.625 0.375 5 1 C3.68 2.32 2.36 3.64 1 5 C0.01 4.01 -0.98 3.02 -2 2 C-1.34 1.34 -0.68 0.68 0 0 Z " fill="#131416" transform="translate(220,139)"/>
<path d="M0 0 C1.41377341 2.63904371 2.37240135 5.07120629 3 8 C2.01 8.33 1.02 8.66 0 9 C-0.84454356 5.62182575 -1.10844919 3.32534757 0 0 Z " fill="#222323" transform="translate(338,182)"/>
<path d="M0 0 C1.98 0.495 1.98 0.495 4 1 C3.67 2.32 3.34 3.64 3 5 C1.68 4.67 0.36 4.34 -1 4 C-0.67 2.68 -0.34 1.36 0 0 Z " fill="#111214" transform="translate(210,148)"/>
</svg>
