<?xml version="1.0" encoding="UTF-8"?>
<svg version="1.1" xmlns="http://www.w3.org/2000/svg" width="319" height="364">
<path d="M0 0 C1.00353516 -0.01998047 2.00707031 -0.03996094 3.04101562 -0.06054688 C15.034939 -0.05284365 24.58999692 4.230345 34.75 10.25 C36.76100879 11.41398787 38.77275923 12.57669512 40.78515625 13.73828125 C41.82816895 14.34365723 42.87118164 14.9490332 43.94580078 15.57275391 C49.48905367 18.76143937 55.09044776 21.84456061 60.6875 24.9375 C69.39139229 29.76275454 78.08282113 34.60907229 86.75 39.5 C87.65878906 40.01175781 88.56757813 40.52351563 89.50390625 41.05078125 C93.86634333 43.51763555 98.19071816 46.03098962 102.4765625 48.62890625 C105.91542821 50.70463621 109.36367869 52.59815818 113 54.3125 C118.65588203 57.08213296 123.95992919 60.27774112 129.28125 63.62890625 C131.49515226 65.00664382 133.69886907 66.28144658 136 67.5 C147.87173309 74.71615149 154.74146058 85.44845095 159.1875 98.4375 C160.13783372 102.34374552 160.31759944 105.99223992 160.32794189 110.00773621 C160.33239858 110.97748814 160.33239858 110.97748814 160.3369453 111.96683103 C160.34559152 114.12528018 160.34713708 116.2836736 160.34863281 118.44213867 C160.35326393 119.99313474 160.35828898 121.54412967 160.36367798 123.09512329 C160.37677695 127.30404168 160.38324221 131.51294414 160.38768864 135.72187972 C160.39062381 138.354402 160.39472949 140.98691997 160.39919281 143.61944008 C160.41286204 151.86448273 160.42253113 160.10951547 160.4263947 168.35456866 C160.43087216 177.85625635 160.44840798 187.35779995 160.4773953 196.85944384 C160.49905014 204.21420781 160.50910103 211.56893136 160.51043582 218.92372686 C160.51148126 223.31149899 160.51733309 227.69913558 160.53525543 232.08687401 C160.5518017 236.21800788 160.55386002 240.34890526 160.54511642 244.48006058 C160.54434951 245.99006219 160.54864288 247.50007686 160.55857468 249.01004601 C160.663135 265.90778878 156.2142857 278.14650255 145.01953125 290.953125 C137.49451939 297.55437678 128.28443892 302.17695961 119.5625 307 C117.34890087 308.23166757 115.13536085 309.46344137 112.921875 310.6953125 C111.80232422 311.31696289 110.68277344 311.93861328 109.52929688 312.57910156 C104.28243072 315.49692339 99.04818868 318.43718534 93.8125 321.375 C87.34765258 325.00081438 80.87629034 328.61390384 74.38671875 332.1953125 C72.09098644 333.4632531 69.79541337 334.73148209 67.5 336 C66.3744873 336.62189209 65.24897461 337.24378418 64.08935547 337.88452148 C56.7895455 341.93779523 49.59473713 346.13840665 42.4375 350.4375 C22.95188598 362.11410792 5.00282501 368.57476674 -18.0625 363.1875 C-25.30540018 360.14399729 -32.10098668 355.8855443 -38.86328125 351.91015625 C-45.20404354 348.18648646 -51.62709992 344.61940223 -58.0625 341.0625 C-60.3647539 339.7867661 -62.66683679 338.51072354 -64.96875 337.234375 C-66.67611328 336.28788086 -66.67611328 336.28788086 -68.41796875 335.32226562 C-84.68623527 326.28953997 -100.91101055 317.17608144 -117.08886719 307.98242188 C-118.90547769 306.95198881 -120.72384396 305.92464502 -122.54394531 304.90039062 C-125.13756819 303.44071062 -127.72554953 301.97146475 -130.3125 300.5 C-131.07159668 300.07565674 -131.83069336 299.65131348 -132.61279297 299.21411133 C-144.86608327 292.19902676 -153.46845696 281.75599124 -157.84729958 268.24448776 C-158.8038442 264.47164062 -159.06898147 261.3249003 -159.07992554 257.44366455 C-159.08445665 256.77574221 -159.08898776 256.10781988 -159.09365618 255.41965747 C-159.10623006 253.20059803 -159.10468441 250.98178624 -159.10302734 248.76269531 C-159.10901705 247.16376432 -159.11582361 245.56483621 -159.12338257 243.96591187 C-159.14100622 239.63513184 -159.14573645 235.30443093 -159.14701414 230.97361851 C-159.14843852 228.26368202 -159.15271358 225.55376545 -159.15800858 222.84383392 C-159.17649783 213.37764719 -159.1846807 203.91151669 -159.18310547 194.4453125 C-159.18190483 185.64127375 -159.20299475 176.83748044 -159.2345928 168.03350377 C-159.26080393 160.45871944 -159.27147072 152.88401504 -159.27019465 145.30918574 C-159.26968638 140.792271 -159.27529455 136.27557444 -159.29655075 131.75870514 C-159.31601455 127.50682298 -159.31600245 123.25536531 -159.30151749 119.00346756 C-159.29943824 117.45034536 -159.30407711 115.89719601 -159.3162384 114.34412003 C-159.43074646 98.69682159 -155.39044344 85.99113219 -144.35546875 74.56640625 C-139.02342524 69.32601027 -133.34041907 65.88307099 -126.75 62.4375 C-124.53693555 61.2411079 -122.3246982 60.04318461 -120.11328125 58.84375 C-119.04029785 58.26753906 -117.96731445 57.69132812 -116.86181641 57.09765625 C-112.01727712 54.46011685 -107.28465325 51.64438923 -102.55444336 48.80859375 C-98.01924132 46.10455449 -93.40866371 43.56123697 -88.76708984 41.04443359 C-83.5958488 38.23191429 -78.45642108 35.3620856 -73.3125 32.5 C-72.14390848 31.85029094 -70.97528806 31.20063386 -69.80664062 30.55102539 C-66.14165675 28.51366958 -62.47704814 26.47563943 -58.8125 24.4375 C-54.55712891 22.07075811 -50.301593 19.70431359 -46.0456543 17.33859253 C-44.36682583 16.40520387 -42.68829079 15.4712875 -41.00976562 14.53735352 C-38.93508828 13.38402618 -36.85896551 12.23329428 -34.78125 11.08544922 C-32.81631614 9.99471702 -30.85781423 8.89230898 -28.90625 7.77783203 C-19.06181908 2.22495771 -11.34318251 -0.07922223 0 0 Z " fill="#000000" transform="translate(158.8125,-0.4375)"/>
<path d="M0 0 C1.37909208 -0.00935994 1.37909208 -0.00935994 2.7860446 -0.01890898 C5.87393888 -0.03489337 8.96104973 -0.02221328 12.0489502 -0.00964355 C14.25977541 -0.01506224 16.47059701 -0.02218347 18.68141174 -0.03088379 C24.69167207 -0.04915007 30.70165836 -0.04203585 36.7119236 -0.02936745 C42.99480567 -0.01925695 49.27766391 -0.0286277 55.56054688 -0.03491211 C66.78889524 -0.04266095 78.01713038 -0.03021194 89.24545211 -0.00987476 C99.42757196 0.00799649 109.60950941 0.00489245 119.79162598 -0.0135498 C131.61375265 -0.03495246 143.43579096 -0.04292578 155.25794077 -0.03110075 C161.51676725 -0.02485702 167.77546804 -0.0240544 174.0342865 -0.0372467 C179.91780066 -0.04878116 185.80096956 -0.0408232 191.68444633 -0.01766968 C193.84681563 -0.01236976 196.00921386 -0.01391816 198.17157173 -0.02272034 C201.11746217 -0.03360855 204.06223775 -0.01999337 207.00805664 0 C207.86914016 -0.00892289 208.73022368 -0.01784577 209.61740065 -0.02703905 C215.37745679 0.04908666 215.37745679 0.04908666 218.53307343 2.35999298 C220.47537101 5.19620623 220.53819852 7.09091451 220.50402832 10.50793457 C220.51949707 12.05480957 220.51949707 12.05480957 220.53527832 13.63293457 C219.8502522 17.34013476 219.04515016 18.28087453 216.00402832 20.50793457 C213.00862494 21.10467099 210.05394573 21.04743184 207.00805664 21.01586914 C206.08866192 21.0221091 205.16926721 21.02834907 204.22201204 21.03477812 C201.13411776 21.05076251 198.04700691 21.03808242 194.95910645 21.0255127 C192.74828123 21.03093138 190.53745963 21.03805261 188.3266449 21.04675293 C182.31638457 21.06501921 176.30639828 21.05790499 170.29613304 21.04523659 C164.01325097 21.03512609 157.73039273 21.04449684 151.44750977 21.05078125 C140.2191614 21.05853009 128.99092626 21.04608108 117.76260453 21.0257439 C107.58048468 21.00787265 97.39854723 21.01097669 87.21643066 21.02941895 C75.39430399 21.0508216 63.57226568 21.05879492 51.75011587 21.04696989 C45.4912894 21.04072616 39.2325886 21.03992355 32.97377014 21.05311584 C27.09025598 21.0646503 21.20708708 21.05669234 15.32361031 21.03353882 C13.16124101 21.0282389 10.99884278 21.0297873 8.83648491 21.03858948 C5.89059447 21.04947769 2.94581889 21.03586251 0 21.01586914 C-0.86108352 21.02479203 -1.72216704 21.03371491 -2.60934401 21.04290819 C-8.36940015 20.96678248 -8.36940015 20.96678248 -11.52501678 18.65587616 C-13.46731437 15.81966291 -13.53014188 13.92495463 -13.49597168 10.50793457 C-13.50628418 9.47668457 -13.51659668 8.44543457 -13.52722168 7.38293457 C-12.11234511 -0.27404453 -6.49518075 -0.06730562 0 0 Z " fill="#FDFDFD" transform="translate(56.9959716796875,235.4920654296875)"/>
<path d="M0 0 C9.76849632 6.8487116 15.60972389 15.36081056 18 27 C18.39635582 31.98176853 18.37566111 36.94784658 18.328125 41.94140625 C18.3250608 43.35961201 18.32318971 44.77782079 18.32244873 46.19602966 C18.31787944 49.14521074 18.30357386 52.09411359 18.28125 55.04321289 C18.25273531 58.82961444 18.24201149 62.61580015 18.2375679 66.40229893 C18.2334242 69.31984114 18.22361937 72.23733958 18.21169281 75.15485954 C18.20598853 76.55236398 18.20123034 77.9498726 18.19742584 79.3473835 C18.19058847 81.28833666 18.17606293 83.22925823 18.16113281 85.17016602 C18.15430481 86.27473648 18.14747681 87.37930695 18.14044189 88.51734924 C18 91 18 91 17 92 C15.59651265 92.09860131 14.18819523 92.13078937 12.78125 92.1328125 C11.50701172 92.13474609 11.50701172 92.13474609 10.20703125 92.13671875 C9.31371094 92.13285156 8.42039062 92.12898438 7.5 92.125 C6.60667969 92.12886719 5.71335937 92.13273437 4.79296875 92.13671875 C3.94347656 92.13542969 3.09398438 92.13414062 2.21875 92.1328125 C1.43435547 92.13168457 0.64996094 92.13055664 -0.15820312 92.12939453 C-2 92 -2 92 -3 91 C-3.10256349 89.10953013 -3.13571825 87.21526157 -3.1418457 85.32202148 C-3.15239738 83.49893715 -3.15239738 83.49893715 -3.16316223 81.63902283 C-3.16497812 80.98483809 -3.16679401 80.33065334 -3.16866493 79.65664482 C-3.17582506 77.60856231 -3.19149163 75.56072016 -3.21000671 73.51271057 C-3.26247051 67.68778966 -3.31037109 61.86299341 -3.32592773 56.0378418 C-3.33606219 52.47673901 -3.36553246 48.91623077 -3.40724754 45.35536385 C-3.42542272 43.34818799 -3.42291846 41.34085893 -3.41999817 39.33360291 C-3.53239646 30.89940698 -4.17349624 24.82650376 -10.375 18.625 C-16.91670415 14.57537362 -23.45565248 14.20690171 -31 15 C-36.93899306 16.71635924 -40.5717192 19.95841059 -44 25 C-45.65451341 29.17312529 -46.2590241 32.69745438 -46.30297852 37.1730957 C-46.31962051 38.37065994 -46.33626251 39.56822418 -46.35340881 40.80207825 C-46.36182297 42.08040024 -46.37023712 43.35872223 -46.37890625 44.67578125 C-46.39509618 46.01003723 -46.41227773 47.34428151 -46.43040466 48.67851257 C-46.47590273 52.17476002 -46.51081621 55.67102333 -46.54260254 59.16741943 C-46.58846521 64.11172433 -46.64341192 69.05591686 -46.70530701 74.00004578 C-46.73736514 76.63085593 -46.7642232 79.26173529 -46.78553772 81.89265442 C-46.79902756 83.07445786 -46.8125174 84.25626129 -46.82641602 85.47387695 C-46.83592789 86.51945267 -46.84543976 87.56502838 -46.85523987 88.64228821 C-47 91 -47 91 -48 92 C-49.40348735 92.09860131 -50.81180477 92.13078937 -52.21875 92.1328125 C-53.49298828 92.13474609 -53.49298828 92.13474609 -54.79296875 92.13671875 C-55.68628906 92.13285156 -56.57960938 92.12898438 -57.5 92.125 C-58.39332031 92.12886719 -59.28664063 92.13273437 -60.20703125 92.13671875 C-61.05652344 92.13542969 -61.90601563 92.13414062 -62.78125 92.1328125 C-63.56564453 92.13168457 -64.35003906 92.13055664 -65.15820312 92.12939453 C-67 92 -67 92 -68 91 C-68.10055113 88.14445419 -68.13615544 85.31305977 -68.12939453 82.45703125 C-68.13114685 81.56116302 -68.13289917 80.6652948 -68.13470459 79.74227905 C-68.13912447 76.76566663 -68.13618464 73.78911308 -68.1328125 70.8125 C-68.1334855 68.75366199 -68.13445549 66.69482406 -68.13571167 64.63598633 C-68.13718883 60.31493373 -68.13503351 55.99390177 -68.13037109 51.67285156 C-68.1246738 46.12063454 -68.12795271 40.56846586 -68.13394356 35.01625061 C-68.13754869 30.76305779 -68.13641081 26.50987651 -68.13381577 22.25668335 C-68.13314636 20.20885207 -68.13397538 18.16101977 -68.13629532 16.1131897 C-68.13882106 13.25642092 -68.13498236 10.39973157 -68.12939453 7.54296875 C-68.13141876 6.68786713 -68.13344299 5.8327655 -68.13552856 4.95175171 C-68.11426239 -0.88573761 -68.11426239 -0.88573761 -67 -2 C-65.58429877 -2.08651611 -64.164405 -2.10704904 -62.74609375 -2.09765625 C-61.46508789 -2.09282227 -61.46508789 -2.09282227 -60.15820312 -2.08789062 C-59.26037109 -2.07951172 -58.36253906 -2.07113281 -57.4375 -2.0625 C-56.53580078 -2.05798828 -55.63410156 -2.05347656 -54.70507812 -2.04882812 C-52.46998686 -2.03700225 -50.23502563 -2.0205222 -48 -2 C-47.67 -0.35 -47.34 1.3 -47 3 C-46.49210937 2.66226563 -45.98421875 2.32453125 -45.4609375 1.9765625 C-44.77257812 1.53054687 -44.08421875 1.08453125 -43.375 0.625 C-42.70210937 0.18414062 -42.02921875 -0.25671875 -41.3359375 -0.7109375 C-29.8948298 -7.02459225 -11.38478101 -5.84920567 0 0 Z " fill="#FAFAFA" transform="translate(109,120)"/>
<path d="M0 0 C0.88315384 0.00202423 1.76630768 0.00404846 2.67622375 0.00613403 C3.60135269 0.00438171 4.52648163 0.00262939 5.47964478 0.00082397 C8.55365343 -0.00359611 11.62760508 -0.000656 14.70161438 0.00271606 C16.82771313 0.00204307 18.9538118 0.00107308 21.07991028 -0.00018311 C25.54219798 -0.00166029 30.00446571 0.00049514 34.4667511 0.00515747 C40.20057007 0.01085477 45.93434223 0.00757587 51.66815948 0.00158501 C56.06032161 -0.00202005 60.45247255 -0.00088228 64.84463501 0.0017128 C66.95945237 0.00238222 69.07427072 0.00155312 71.18908691 -0.00076675 C74.13925384 -0.00329237 77.08934384 0.00054603 80.039505 0.00613403 C80.92265884 0.0041098 81.80581268 0.00208557 82.71572876 0 C88.74360204 0.02126622 88.74360204 0.02126622 89.85786438 1.13552856 C89.95646569 2.53901592 89.98865375 3.94733334 89.99067688 5.35427856 C89.99196594 6.20377075 89.993255 7.05326294 89.99458313 7.92849731 C89.99071594 8.82181763 89.98684875 9.71513794 89.98286438 10.63552856 C89.98673157 11.52884888 89.99059875 12.42216919 89.99458313 13.34255981 C89.99329407 14.192052 89.992005 15.04154419 89.99067688 15.91677856 C89.98954895 16.7011731 89.98842102 17.48556763 89.98725891 18.29373169 C89.85786438 20.13552856 89.85786438 20.13552856 88.85786438 21.13552856 C86.11892353 21.22411502 83.40533168 21.25076335 80.66645813 21.23318481 C79.84661942 21.23176987 79.0267807 21.23035492 78.18209839 21.22889709 C75.55315056 21.22328146 72.92428665 21.21072636 70.29536438 21.19802856 C68.51737081 21.19301558 66.73937592 21.18845232 64.96138 21.18435669 C60.59350893 21.17330695 56.2257009 21.15603188 51.85786438 21.13552856 C51.85878617 21.72213225 51.85970797 22.30873594 51.86065769 22.9131155 C51.8827137 37.16706645 51.89927631 51.42101484 51.90967655 65.67497921 C51.91483932 72.56800384 51.92188166 79.46101709 51.93330383 86.35403442 C51.94431138 92.99999021 51.9501406 99.64593725 51.95274162 106.29190254 C51.95459639 108.83375803 51.95821798 111.37561283 51.96359444 113.9174633 C51.97080105 117.46404318 51.97185548 121.01057346 51.97138977 124.55715942 C51.97498505 125.61954834 51.97858032 126.68193726 51.98228455 127.77651978 C51.98090988 128.737108 51.97953522 129.69769623 51.9781189 130.68739319 C51.97904069 131.5271466 51.97996248 132.36690001 51.98091221 133.23210049 C51.85786438 135.13552856 51.85786438 135.13552856 50.85786438 136.13552856 C49.45437703 136.23412988 48.04605961 136.26631793 46.63911438 136.26834106 C45.3648761 136.27027466 45.3648761 136.27027466 44.06489563 136.27224731 C43.17157532 136.26838013 42.278255 136.26451294 41.35786438 136.26052856 C40.01788391 136.26632935 40.01788391 136.26632935 38.65083313 136.27224731 C37.80134094 136.27095825 36.95184875 136.26966919 36.07661438 136.26834106 C35.29221985 136.26721313 34.50782532 136.26608521 33.69966125 136.2649231 C31.85786438 136.13552856 31.85786438 136.13552856 30.85786438 135.13552856 C30.76217862 133.65536462 30.7359817 132.17064583 30.73760986 130.68739319 C30.7362352 129.72680496 30.73486053 128.76621674 30.73344421 127.77651978 C30.73883713 126.1829364 30.73883713 126.1829364 30.74433899 124.55715942 C30.74419296 123.44510635 30.74404694 122.33305328 30.74389648 121.18730164 C30.74459617 117.49163905 30.75239118 113.79602615 30.76020813 110.10037231 C30.76207211 107.54589363 30.76349611 104.99141459 30.76449585 102.43693542 C30.76793094 96.38791147 30.77582174 90.33890901 30.78584534 84.28989369 C30.79700755 77.40487703 30.8025172 70.51985953 30.80754077 63.63483608 C30.81800438 49.46839026 30.83560315 35.3019604 30.85786438 21.13552856 C29.74226135 21.14076538 28.62665833 21.1460022 27.47724915 21.15139771 C23.35307105 21.16944632 19.22889647 21.18096005 15.10469055 21.19046021 C13.31692417 21.19550075 11.52916193 21.20233311 9.7414093 21.21096802 C7.1773527 21.22304587 4.61335041 21.22875951 2.04927063 21.23318481 C0.84301781 21.24092674 0.84301781 21.24092674 -0.38760376 21.24882507 C-2.30615277 21.24902071 -4.2245893 21.19754839 -6.14213562 21.13552856 C-7.69820313 19.57946106 -7.27184331 18.07595485 -7.27494812 15.91677856 C-7.27623718 15.06728638 -7.27752625 14.21779419 -7.27885437 13.34255981 C-7.27498718 12.4492395 -7.27112 11.55591919 -7.26713562 10.63552856 C-7.27100281 9.74220825 -7.27487 8.84888794 -7.27885437 7.92849731 C-7.27756531 7.07900513 -7.27627625 6.22951294 -7.27494812 5.35427856 C-7.27382019 4.56988403 -7.27269226 3.7854895 -7.27153015 2.97732544 C-6.97383088 -1.26011478 -3.44726476 0.01216189 0 0 Z " fill="#FAFAFA" transform="translate(122.14213562011719,75.86447143554688)"/>
</svg>
